<svg width="101" height="101" viewBox="0 0 101 101" fill="none" xmlns="http://www.w3.org/2000/svg">
<path d="M90.7036 16.8333C90.3212 16.7939 89.9357 16.7939 89.5533 16.8333H10.9978C10.4943 16.841 9.99417 16.9165 9.51083 17.0577L50.0511 57.4297L90.7036 16.8333Z" fill="#C1777B"/>
<path d="M94.8558 20.7331L54.0069 61.4136C52.9556 62.4587 51.5335 63.0453 50.0511 63.0453C48.5687 63.0453 47.1466 62.4587 46.0953 61.4136L5.61109 21.0417C5.48664 21.4991 5.42065 21.9705 5.4147 22.4445V78.5556C5.4147 80.0438 6.00587 81.471 7.05816 82.5232C8.11045 83.5755 9.53766 84.1667 11.0258 84.1667H89.5814C91.0695 84.1667 92.4967 83.5755 93.549 82.5232C94.6013 81.471 95.1925 80.0438 95.1925 78.5556V22.4445C95.1702 21.86 95.0566 21.2825 94.8558 20.7331V20.7331ZM14.8694 78.5556H10.9697V74.5437L31.3661 54.3156L35.3219 58.2714L14.8694 78.5556ZM89.5253 78.5556H85.5975L65.145 58.2714L69.1008 54.3156L89.4972 74.5437L89.5253 78.5556Z" fill="#C1777B"/>
</svg>
