<svg width="101" height="101" viewBox="0 0 101 101" fill="none" xmlns="http://www.w3.org/2000/svg">
<path d="M92.5833 53.3056C92.2141 53.3077 91.8481 53.2369 91.5062 53.0973C91.1644 52.9577 90.8535 52.752 90.5914 52.492L50.5 12.3725L10.4086 52.492C9.87189 52.9516 9.18152 53.1918 8.47542 53.1645C7.76933 53.1372 7.09954 52.8445 6.59988 52.3449C6.10023 51.8452 5.80752 51.1754 5.78024 50.4693C5.75297 49.7632 5.99314 49.0728 6.45277 48.5361L48.5361 6.4528C49.0618 5.93026 49.7728 5.63696 50.514 5.63696C51.2552 5.63696 51.9663 5.93026 52.4919 6.4528L94.5753 48.5361C94.9613 48.93 95.2227 49.4289 95.3268 49.9705C95.4309 50.5121 95.3731 51.0724 95.1606 51.5813C94.948 52.0902 94.5902 52.5252 94.1318 52.8318C93.6734 53.1385 93.1348 53.3033 92.5833 53.3056V53.3056Z" fill="#C1777B"/>
<path d="M50.5 21.8552L16.8333 55.6341V89.7777C16.8333 91.2659 17.4245 92.6931 18.4768 93.7454C19.5291 94.7977 20.9563 95.3888 22.4444 95.3888H42.0833V67.3333H58.9167V95.3888H78.5556C80.0437 95.3888 81.4709 94.7977 82.5232 93.7454C83.5755 92.6931 84.1667 91.2659 84.1667 89.7777V55.4377L50.5 21.8552Z" fill="#C1777B"/>
</svg>
