<svg width="196" height="200" viewBox="0 0 196 200" fill="none" xmlns="http://www.w3.org/2000/svg">
<path d="M50.823 0.746758C54.9343 7.46758 62.6685 11.7092 64.0542 12.4651C64.2163 12.5535 64.3596 12.6728 64.476 12.8162C64.7573 13.163 64.9985 13.5319 65.2012 13.9182C68.4528 13.5812 71.9079 13.412 75.5791 13.412C82.217 13.412 88.283 14.1564 93.8321 15.6479L93.9025 15.5418L94.1794 15.1751C94.2958 15.0317 94.4391 14.9124 94.6012 14.824C95.9869 14.0681 103.721 9.82652 107.832 3.1057C108.403 2.1725 109.793 2.06477 110.31 3.06282C114.05 10.2821 113.714 17.2895 110.98 22.6701C110.848 22.9299 110.71 23.1878 110.565 23.4437C124.905 33.6071 134.544 51.516 141.307 77.2641C142.047 79.7049 142.911 82.6777 143.897 86.1826C147.715 75.8979 155.784 68.2465 169.194 64.9903C170.498 64.6734 171.471 66.18 170.645 67.2386C169.128 69.1836 168.858 71.0251 169.549 72.8894C170.437 75.2847 172.986 77.476 174.201 78.235C175.416 78.9941 174.869 80.8641 173.433 80.8534C170.83 80.8341 167.956 81.4199 166.818 81.7811C164.085 82.6484 162.759 83.8654 163.125 85.8674C169.31 84.7052 176.139 85.3779 183.592 88.2912C184.843 88.78 184.775 90.5719 183.491 90.9654C181.133 91.6884 179.856 93.0422 179.353 94.9656C178.706 97.4371 179.537 100.694 180.097 102.012C180.657 103.331 179.136 104.549 177.966 103.717C175.845 102.208 173.155 101.04 172.015 100.683C167.943 99.4072 165.978 100.554 166.071 105.839C166.094 107.193 164.385 107.805 163.544 106.743C162.108 104.932 158.068 101.265 148.491 103.029C152.995 119.958 154.967 133.222 154.967 150.923C154.967 158.93 154.044 165.815 152.221 171.673C159.941 173.159 164.479 172.656 166.598 170.578C168.258 168.95 168.637 166.764 168.261 161.602L167.792 156.378C167.123 147.885 168.261 142.153 174.96 140.115L171.091 136.172C170.277 135.343 170.762 134.015 171.789 133.794L194.063 135.701C195.123 135.794 195.68 136.961 195.16 137.831L180.57 155.567C179.744 156.57 178.161 156.016 178.064 154.795L178.556 147.039C177.208 147.408 176.224 148.442 175.605 150.143C174.675 152.694 176.84 163.303 177.287 166.895C177.733 170.487 177.757 173.378 177.241 176.002C174.809 188.38 162.976 194.408 142.348 188.006C139.724 190.455 136.699 192.488 133.279 194.13C122.831 199.147 111.378 200.32 89.3321 199.931C82.4643 199.78 78.451 199.693 77.2922 199.672C76.1333 199.651 72.2743 199.626 65.7152 199.596C42.2994 199.467 32.8677 198.33 23.2859 193.551C10.1109 186.98 3.12397 173.824 1.74648 151.008C1.0592 139.625 2.08624 131.075 4.90346 120.91C5.0647 120.397 5.22361 119.891 5.38019 119.391C4.37824 118.793 3.39025 117.887 2.41734 116.674C-1.23313 112.121 -0.612479 107.397 3.35856 103.165C5.46934 100.915 8.4989 98.8371 11.9633 97.0902C13.6431 90.592 15.0971 83.5055 16.4193 74.7148C19.6745 53.0734 23.3657 41.35 30.347 31.7926C34.594 25.9784 40.0144 21.5544 46.8734 18.5053C44.9163 13.4111 45.0101 7.14173 48.3454 0.703879C48.8625 -0.294173 50.2522 -0.186442 50.823 0.746758ZM75.5791 16.2457C54.4184 16.2457 41.042 21.9551 32.6352 33.4641C26.1306 42.369 22.7223 53.5396 19.4186 73.9098L18.4643 79.9606C17.5611 85.5009 16.516 90.5745 15.2761 95.5804L15.518 95.4746L16.4458 95.1058C17.1757 94.8237 17.9961 95.1867 18.2782 95.9166C18.5603 96.6465 18.1973 97.4669 17.4674 97.749C12.5424 99.6525 8.06796 102.287 5.42506 105.104C2.35286 108.378 1.93682 111.545 4.62805 114.901C6.90279 117.738 8.69427 118.128 10.7718 116.642C13.926 114.385 18.8308 105.95 19.9016 104.484C20.3629 103.853 21.2198 103.665 21.8685 104.102C22.5172 104.54 22.7122 105.438 22.2508 106.069C20.4619 108.517 16.2807 116.341 12.3849 118.971C10.9124 119.966 9.46478 120.414 8.04384 120.298C7.87621 120.856 7.73688 121.32 7.63421 121.667C5.6989 128.211 3.93785 140.284 4.57502 150.837C5.89646 172.725 12.3888 184.95 24.5507 191.015C33.6112 195.534 42.8248 196.637 65.8093 196.762C71.579 196.783 74.87 196.799 75.6824 196.811C76.4948 196.823 81.0487 196.919 89.344 197.098C110.963 197.479 122.132 196.339 132.053 191.575C145.285 185.222 152.133 172.574 152.133 150.923C152.133 132.731 149.737 117.048 145.159 101.552C142.327 91.9681 139.529 81.4225 137.901 75.5134C131.353 51.7365 122.263 35.2617 108.98 25.8232C108.449 26.5174 107.861 27.194 107.216 27.8518C105.19 29.9206 99.7666 30.3103 96.6439 27.9993C93.727 25.8405 92.1009 21.7719 92.7552 18.3094C87.5273 16.9303 81.8187 16.2457 75.5791 16.2457ZM175.803 136.927L178.607 139.786C179.374 140.568 179.002 141.887 177.94 142.153C171.423 143.786 169.924 147.541 170.62 156.202L171.041 160.779C171.573 167.32 171.137 170.096 168.582 172.601C165.615 175.511 160.15 176.129 151.289 174.378C149.611 178.782 147.367 182.546 144.567 185.719C162.171 190.824 171.796 186.146 174.241 176.436C174.87 173.268 174.91 169.914 174.36 166.372C173.781 162.644 172.282 152.912 172.639 150.535C173.221 146.649 175.581 144.348 179.946 143.895C180.746 143.812 181.438 144.408 181.504 145.182L181.177 150.371L191.135 138.285L175.803 136.927ZM111.405 84.982C115.559 84.4701 118.214 86.5938 119.243 91.5546C120.429 97.268 117.732 101.195 112.272 103.164C108.171 104.642 102.59 104.982 96.9522 104.403C96.1738 104.323 95.6077 103.627 95.6877 102.849C95.7677 102.07 96.4635 101.504 97.2419 101.584C102.494 102.124 107.677 101.808 111.311 100.498C115.535 98.9752 117.343 96.3425 116.469 92.1304C115.73 88.5702 114.311 87.4092 111.785 87.7902C107.95 88.3686 99.7502 93.6582 98.131 94.4775C97.4334 94.8305 96.5842 94.6096 96.2048 93.9252C95.8255 93.2408 96.0596 92.3521 96.7571 91.9991C99.4624 90.6303 106.74 85.5571 111.405 84.982ZM179.485 89.8507C168.377 86.3063 156.27 88.393 147.1 97.8361C147.314 98.629 147.532 99.4391 147.754 100.266C157.325 98.4939 161.741 101.407 163.433 102.694C164.711 97.4484 168.532 95.4727 176.489 99.5252C175.714 95.693 176.865 91.7401 179.485 89.8507ZM166.724 68.6236C156.34 71.8583 148.053 79.606 145.286 91.1808C145.604 92.3316 145.931 93.5276 146.269 94.7683C147.033 94.041 147.746 93.4078 148.346 92.9208C152.012 89.9454 156.032 87.7581 160.397 86.515C159.589 82.4045 162.087 79.355 169.819 78.2669C166.986 75.572 165.662 71.6739 166.724 68.6236ZM108.838 6.66553C106.084 10.1572 103.356 12.5395 100.118 14.7627C99.2495 15.3593 97.933 16.1878 96.1688 17.2484C94.6601 19.5296 95.656 23.465 98.0144 25.4711C100.373 27.4773 104.535 26.5989 105.192 25.8691C106.533 24.3781 112.965 18.1805 108.838 6.66553ZM49.8174 4.30659C47.8041 9.92369 48.3035 14.2755 49.4989 17.4329C53.1532 16.0613 57.1871 15.0421 61.6328 14.373C60.2899 13.5553 59.259 12.8995 58.5372 12.4038C55.2997 10.1806 52.5713 7.79824 49.8174 4.30659Z" fill="#757575"/>
<path d="M39.3367 44.5925C42.5971 44.5925 45.2402 41.9494 45.2402 38.689C45.2402 35.4286 42.5971 32.7855 39.3367 32.7855C36.0763 32.7855 33.4332 35.4286 33.4332 38.689C33.4332 41.9494 36.0763 44.5925 39.3367 44.5925Z" fill="#757575"/>
<path d="M79.4766 46.9442C82.737 46.9442 85.3801 44.3011 85.3801 41.0407C85.3801 37.7803 82.737 35.1372 79.4766 35.1372C76.2162 35.1372 73.5731 37.7803 73.5731 41.0407C73.5731 44.3011 76.2162 46.9442 79.4766 46.9442Z" fill="#757575"/>
<path d="M51.1384 72.9321C55.703 72.9321 59.4034 68.1746 59.4034 62.3059C59.4034 56.4371 55.703 51.6796 51.1384 51.6796C46.5739 51.6796 42.8735 56.4371 42.8735 62.3059C42.8735 68.1746 46.5739 72.9321 51.1384 72.9321Z" fill="#757575"/>
</svg>
