<svg width="151" height="150" viewBox="0 0 151 150" fill="none" xmlns="http://www.w3.org/2000/svg">
<path d="M37.4074 0.560068C36.9793 -0.139832 35.937 -0.22063 35.5492 0.527909C33.0477 5.3563 32.9774 10.0583 34.4455 13.8815C29.3005 16.1662 25.2355 19.484 22.0504 23.8445C16.8145 31.0125 14.0461 39.805 11.6047 56.0361C11.1393 59.13 10.6522 61.9425 10.1362 64.56C9.14783 63.9137 8.17552 63.394 7.2949 63.1243C4.29384 62.2053 2.05633 63.4281 0.649753 66.9581C-0.970229 71.0236 0.510805 74.2757 4.287 76.4405C5.07918 76.8947 5.96814 77.2983 6.9304 77.6508C5.93446 81.1065 4.61253 85.452 2.96784 90.6827C0.854924 98.3065 0.0846531 104.718 0.60011 113.256C1.63323 130.368 6.87336 140.235 16.7547 145.163C23.9409 148.748 31.0147 149.6 48.5765 149.697C53.4958 149.719 56.3901 149.738 57.2592 149.754C58.1283 149.77 61.1383 149.835 66.2891 149.949C82.8233 150.24 91.413 149.36 99.2493 145.597C103.526 143.544 106.981 140.676 109.587 136.89C132.536 141.114 143.763 134.878 148.062 127.724C152.636 120.111 149.302 110.515 140.542 105.339L144.664 102.605C145.342 101.994 144.959 100.804 143.988 100.762L126.78 100.028C126.024 100.11 125.576 100.97 125.998 101.647L134.719 115.639C135.396 116.486 136.521 116.049 136.65 115.194L137.439 109.899C143.466 115.979 144.13 121.565 140.542 125.153C136.338 129.355 126.874 130.464 113.813 127.537C114.943 123.416 115.515 118.652 115.515 113.192C115.515 99.9167 114.036 89.9684 110.66 77.2728C117.842 75.9491 120.871 78.6991 121.948 80.0576C122.579 80.854 123.861 80.395 123.843 79.379C123.774 75.4151 125.247 74.5554 128.301 75.5122C129.156 75.7799 131.173 76.6561 132.764 77.7877C133.642 78.4121 134.782 77.4984 134.362 76.5094C133.942 75.5203 133.319 73.0778 133.804 71.2242C134.182 69.7816 135.14 68.7663 136.908 68.224C137.871 67.9289 137.922 66.585 136.984 66.2184C131.395 64.0334 126.273 63.5289 121.635 64.4028C121.359 62.899 122.354 61.9863 124.404 61.3358C125.257 61.0649 127.412 60.6256 129.365 60.6401C130.442 60.6481 130.852 59.2456 129.94 58.6763C129.029 58.107 127.118 56.4635 126.452 54.667C125.934 53.2688 126.136 51.8877 127.274 50.4289C127.893 49.635 127.164 48.5051 126.185 48.7427C116.128 51.1849 110.077 56.9235 107.214 64.6385C106.473 62.0083 105.826 59.7787 105.27 57.9481C100.198 38.637 92.9684 25.2053 82.2133 17.5823C82.3224 17.3909 82.4263 17.1974 82.5253 17.0026C84.5756 12.9671 84.8276 7.71155 82.0225 2.29712C81.6347 1.54858 80.5924 1.62938 80.1643 2.32928C77.0808 7.36989 71.2802 10.5511 70.241 11.118C70.1194 11.1843 70.0119 11.2738 69.9246 11.3813C69.8311 11.4966 69.7436 11.6151 69.6618 11.7365C65.5023 10.6173 60.9528 10.059 55.9744 10.059C53.221 10.059 50.6297 10.1859 48.1918 10.4402C48.039 10.149 47.8581 9.87224 47.6471 9.61214C47.5598 9.50458 47.4524 9.41512 47.3308 9.34879C46.2915 8.78189 40.4909 5.60069 37.4074 0.560068ZM55.9744 12.1843C60.6548 12.1843 64.9368 12.6979 68.8597 13.7314C68.3657 16.329 69.5853 19.3803 71.773 20.9995C74.115 22.7328 78.1828 22.4404 79.7023 20.8888C80.1849 20.396 80.6259 19.8892 81.0262 19.3691C90.9875 26.4463 97.8045 38.8024 102.716 56.6351C103.937 61.0669 106.036 68.9761 108.159 76.164C111.593 87.7859 113.39 99.5483 113.39 113.192C113.39 129.43 108.254 138.916 98.3294 143.682C90.8887 147.254 82.5124 148.109 66.2981 147.823C60.0766 147.689 56.6612 147.618 56.0519 147.608C55.4426 147.599 52.9744 147.587 48.6471 147.572C31.4087 147.478 24.4986 146.651 17.7032 143.262C8.58179 138.712 3.71258 129.544 2.7215 113.128C2.24363 105.213 3.56441 96.1585 5.0159 91.2503C5.63374 89.1611 8.02169 81.421 8.95559 78.2805C10.9583 78.8322 13.1763 79.1874 15.4407 79.351C16.0261 79.3933 16.5349 78.953 16.5772 78.3677C16.6195 77.7823 16.1792 77.2735 15.5939 77.2313C11.6441 76.9459 7.85721 76.0375 5.34398 74.5967C2.42252 72.9219 1.42976 70.742 2.62405 67.7448C3.63352 65.2114 4.83285 64.5386 6.64876 65.149C9.4058 66.0757 14.7735 71.0505 15.8628 71.8666C16.332 72.2181 16.988 72.1656 17.3573 71.7095C17.7266 71.2534 17.6695 70.5665 17.2002 70.2149C16.162 69.4371 14.1817 67.575 12.0461 65.9273C12.4404 64.0055 12.8025 62.031 13.1384 59.9705L13.8542 55.4323C16.3319 40.1547 18.8882 31.7767 23.7666 25.0981C30.0717 16.4663 40.104 12.1843 55.9744 12.1843ZM128.867 102.232L140.597 102.742L137.692 104.664C137.148 105.157 137.259 106.076 137.955 106.407C147.429 110.903 150.676 120.196 145.789 127.331C141.122 134.145 128.739 138.487 110.76 135.02C111.713 133.363 112.522 131.55 113.19 129.575C126.984 132.692 137.203 131.496 142.044 126.656C147.092 121.609 145.309 113.953 137.386 106.966C136.701 106.362 135.747 106.893 135.639 107.611L134.976 112.029L128.867 102.232ZM62.3746 79.4707C58.4654 81.1407 54.9286 83.3929 52.7761 85.8539C49.9104 89.1302 49.5688 92.6873 52.4242 96.0039C54.9034 98.8837 57.4171 99.3114 59.9554 97.4653C62.8066 95.3918 65.7358 89.4177 67.0126 87.5362C67.3419 87.051 67.1723 86.3829 66.6746 86.0719C66.1769 85.7609 65.5395 85.9248 65.2103 86.41C64.446 87.5362 60.9904 93.9876 58.6853 95.7614C57.167 96.9297 55.814 96.6841 54.0348 94.6173C51.9297 92.1722 52.1587 89.7878 54.3757 87.2531C56.283 85.0726 59.5678 82.9808 63.2095 81.4251C63.7492 81.1946 63.9998 80.5702 63.7692 80.0305C63.5387 79.4908 62.9143 79.2402 62.3746 79.4707ZM133.903 67.388C131.939 68.8051 131.076 71.7698 131.657 74.6439C125.689 71.6045 122.823 73.0863 121.865 77.0203C120.596 76.0556 117.284 73.8704 110.108 75.1976C109.939 74.5793 109.775 73.9717 109.615 73.3764C116.492 66.2947 125.573 64.7297 133.903 67.388ZM124.333 51.4677C123.536 53.7554 124.53 56.679 126.654 58.7002C120.855 59.5163 118.982 61.8034 119.586 64.8866C116.314 65.8186 113.299 67.459 110.55 69.6906C110.099 70.0562 109.564 70.5317 108.992 71.0769C108.739 70.1469 108.493 69.2492 108.255 68.3851C110.33 59.7045 116.545 53.8937 124.333 51.4677ZM80.9185 4.99915C84.014 13.6354 79.1897 18.2836 78.1839 19.4018C77.6916 19.9492 74.5697 20.608 72.8009 19.1034C71.032 17.5988 70.2852 14.6472 71.4167 12.9363C72.7398 12.1409 73.7271 11.5195 74.3787 11.0721C76.8068 9.40465 78.8531 7.61789 80.9185 4.99915ZM36.6532 3.22994C38.7186 5.84868 40.7649 7.63544 43.193 9.30285C43.7347 9.67482 44.5085 10.1671 45.5144 10.7796C42.1806 11.2815 39.1548 12.046 36.4121 13.0746C35.5178 10.7066 35.1432 7.44277 36.6532 3.22994Z" fill="#FED777"/>
<path d="M29.3635 40.0054L58.0283 41.5077C62.0962 41.7209 65.2339 45.1974 65.0207 49.2653C64.8076 53.3316 61.3283 56.4629 57.2557 56.2494L28.5909 54.7472C24.5231 54.534 21.3854 51.0575 21.5985 46.9896L21.6266 46.6278C22.0384 42.7101 25.4366 39.7996 29.3635 40.0054ZM57.9171 43.63L29.2523 42.1278C26.4556 41.9812 24.0339 44.0553 23.7428 46.8224L23.7191 47.1286C23.5688 49.9954 25.8053 52.473 28.7022 52.6248L57.3669 54.1271C60.2676 54.2791 62.7467 52.048 62.8983 49.154C63.05 46.2595 60.8139 43.7819 57.9171 43.63Z" fill="#FED777"/>
<path d="M28.7808 41.7492L28.5415 46.3486L22.9691 46.0467L22.8534 48.1688L28.4299 48.4703L28.1795 53.2213L30.3019 53.3326L30.5516 48.5872L35.3122 48.8458L35.0628 53.5821L37.1852 53.6933L37.4339 48.9627L42.1945 49.2212L41.9461 53.9428L44.0685 54.054L44.3162 49.3381L49.0768 49.5967L48.8294 54.3036L50.9518 54.4148L51.1985 49.7118L55.9591 49.9722L55.7127 54.6643L57.8351 54.7755L58.0826 50.0873L63.9 50.4056L64.0156 48.2835L58.1924 47.9656L58.4363 43.3034L56.3139 43.1921L56.0707 47.8505L51.3101 47.5901L51.553 42.9426L49.4306 42.8314L49.1884 47.475L44.4278 47.2146L44.6697 42.5819L42.5473 42.4707L42.3061 47.0995L37.5455 46.841L37.7864 42.2211L35.6641 42.1099L35.4238 46.7241L30.6632 46.4655L30.9031 41.8604L28.7808 41.7492Z" fill="#FED777"/>
<path d="M59.7814 34.7714C59.0478 34.7714 58.4531 34.1767 58.4531 33.4431C58.4531 32.5685 58.6099 31.3319 59.0934 30.061C59.9639 27.7725 61.6499 26.2952 64.209 26.2952C66.7682 26.2952 68.4542 27.7725 69.3247 30.061C69.8082 31.3319 69.965 32.5685 69.965 33.4431C69.965 34.1767 69.3703 34.7714 68.6367 34.7714C67.9031 34.7714 67.3084 34.1767 67.3084 33.4431C67.1313 32.1704 66.9757 31.3578 66.8417 31.0056C66.3286 29.6568 65.5241 28.9517 64.209 28.9517C62.894 28.9517 62.0894 29.6568 61.5764 31.0056C61.3754 31.534 61.1097 32.7095 61.1097 33.4431C61.1097 34.1767 60.515 34.7714 59.7814 34.7714Z" fill="#FED777"/>
<path d="M25.9394 33.0002C25.2058 33.0002 24.6111 32.4055 24.6111 31.6719C24.6111 30.7972 24.7679 29.5607 25.2514 28.2898C26.1219 26.0013 27.8079 24.5239 30.367 24.5239C32.9262 24.5239 34.6122 26.0013 35.4827 28.2898C35.9662 29.5607 36.123 30.7972 36.123 31.6719C36.123 32.4055 35.5283 33.0002 34.7947 33.0002C34.0611 33.0002 33.4664 32.4055 33.4664 31.6719C33.2893 30.3991 33.1337 29.5866 32.9997 29.2343C32.4866 27.8855 31.6821 27.1805 30.367 27.1805C29.052 27.1805 28.2474 27.8855 27.7344 29.2343C27.5333 29.7627 27.2677 30.9383 27.2677 31.6719C27.2677 32.4055 26.673 33.0002 25.9394 33.0002Z" fill="#FED777"/>
</svg>
