<svg width="75" height="75" viewBox="0 0 75 75" fill="none" xmlns="http://www.w3.org/2000/svg">
<path d="M46.3406 19.6938C44.0344 19.5875 43.3406 19.5688 37.5 19.5688C31.6594 19.5688 30.9688 19.5906 28.6625 19.6938C22.7281 19.9656 19.9656 22.775 19.6938 28.6625C19.5906 30.9688 19.5656 31.6594 19.5656 37.5C19.5656 43.3406 19.5906 44.0312 19.6938 46.3406C19.9656 52.2125 22.7156 55.0375 28.6625 55.3094C30.9656 55.4125 31.6594 55.4375 37.5 55.4375C43.3438 55.4375 44.0344 55.4156 46.3406 55.3094C52.275 55.0406 55.0344 52.2219 55.3094 46.3406C55.4125 44.0344 55.4344 43.3406 55.4344 37.5C55.4344 31.6594 55.4125 30.9688 55.3094 28.6625C55.0344 22.7781 52.2688 19.9656 46.3406 19.6938ZM37.5 48.7344C31.2969 48.7344 26.2656 43.7062 26.2656 37.5C26.2656 31.2969 31.2969 26.2688 37.5 26.2688C43.7031 26.2688 48.7344 31.2969 48.7344 37.5C48.7344 43.7031 43.7031 48.7344 37.5 48.7344ZM49.1781 28.45C47.7281 28.45 46.5531 27.275 46.5531 25.825C46.5531 24.375 47.7281 23.2 49.1781 23.2C50.6281 23.2 51.8031 24.375 51.8031 25.825C51.8031 27.2719 50.6281 28.45 49.1781 28.45ZM44.7906 37.5C44.7906 41.5281 41.525 44.7906 37.5 44.7906C33.475 44.7906 30.2094 41.5281 30.2094 37.5C30.2094 33.4719 33.475 30.2094 37.5 30.2094C41.525 30.2094 44.7906 33.4719 44.7906 37.5ZM37.5 0C16.7906 0 0 16.7906 0 37.5C0 58.2094 16.7906 75 37.5 75C58.2094 75 75 58.2094 75 37.5C75 16.7906 58.2094 0 37.5 0ZM59.2438 46.5187C58.8844 54.4719 54.4562 58.8781 46.5219 59.2438C44.1875 59.35 43.4406 59.375 37.5 59.375C31.5594 59.375 30.8156 59.35 28.4813 59.2438C20.5313 58.8781 16.1219 54.4656 15.7562 46.5187C15.65 44.1875 15.625 43.4406 15.625 37.5C15.625 31.5594 15.65 30.8156 15.7562 28.4813C16.1219 20.5313 20.5344 16.1219 28.4813 15.7594C30.8156 15.65 31.5594 15.625 37.5 15.625C43.4406 15.625 44.1875 15.65 46.5219 15.7594C54.475 16.125 58.8875 20.5469 59.2438 28.4813C59.35 30.8156 59.375 31.5594 59.375 37.5C59.375 43.4406 59.35 44.1875 59.2438 46.5187Z" fill="#F5F5F5"/>
</svg>
