<svg width="81" height="80" viewBox="0 0 81 80" fill="none" xmlns="http://www.w3.org/2000/svg">
<path d="M80.2702 40.0453C80.2702 37.5199 80.0899 36.167 79.7291 33.9123C79.7291 33.9123 79.7291 33.9123 79.7291 33.8221C79.7291 33.7319 79.6389 33.6417 79.6389 33.5515C79.6389 33.4613 79.5487 33.3711 79.5487 33.3711C79.4585 33.2809 79.4585 33.2809 79.3683 33.1907C79.2781 33.1005 79.2781 33.1005 79.1879 33.0103C79.0977 33.0103 79.0076 32.9202 79.0076 32.9202C78.9174 32.9202 78.8272 32.83 78.737 32.83C78.737 32.83 78.737 32.83 78.6468 32.83C78.5566 32.83 78.5566 32.83 78.4664 32.83C78.3762 32.83 78.3762 32.83 78.286 32.83C78.286 32.83 78.286 32.83 78.1958 32.83C78.1056 32.83 78.0155 32.9202 77.9253 32.9202C77.8351 32.9202 77.7449 33.0103 77.7449 33.0103C77.6547 33.1005 77.6547 33.1005 77.5645 33.1907C77.4743 33.2809 77.4743 33.2809 77.3841 33.3711C77.3841 33.4613 77.2939 33.5515 77.2939 33.5515C77.2939 33.6417 77.2037 33.7319 77.2037 33.8221C77.2037 33.8221 77.2037 33.8221 77.2037 33.9123C76.843 37.1591 74.2274 41.7589 70.4394 45.8175C68.7258 47.441 66.9219 49.0644 65.0279 50.3271C61.6006 52.7622 57.7224 54.3857 53.1227 54.3857C50.4169 54.3857 47.5308 53.8445 44.5545 52.672C37.9705 50.2369 37.249 43.3823 37.249 40.5864C37.0686 35.5357 39.2332 31.0261 41.2174 30.1242C41.3076 30.034 41.488 30.034 41.5782 29.9438C41.5782 29.9438 41.5782 29.9438 41.6684 29.9438C44.8251 29.3125 47.8916 29.7635 49.1542 31.2065C49.6954 31.8379 49.8758 32.6496 49.515 33.6417C48.5229 36.3474 49.2444 39.4139 51.3188 41.1276C53.3932 42.8412 56.1892 42.8412 58.8047 41.2178C61.8712 39.4139 63.5849 36.4376 63.5849 33.1005C63.5849 31.3869 63.1339 29.7635 62.232 28.2302C64.577 28.7714 67.0121 28.6812 68.7257 26.9675C70.4394 25.2539 70.8903 22.6383 69.808 20.113C68.5454 17.1367 64.8475 13.7094 58.2636 13.7094C56.0088 13.7094 54.205 13.7996 52.5815 13.8898C49.966 14.0702 47.8916 14.1604 45.0956 13.7094C42.8409 13.3486 41.8488 12.5369 41.6684 11.9056C41.5782 11.5448 41.7586 11.1841 41.9389 11.0037C42.4801 10.4625 43.7428 10.0116 45.5466 10.5527C48.4327 11.4546 50.2365 10.2821 51.0483 9.56061C52.4011 8.20774 52.9423 6.13334 52.4913 4.32952C52.0404 2.61588 50.7777 1.35321 48.9739 0.992441C46.0877 0.361102 43.1114 0.000336752 40.0449 0.000336752C18.0383 -0.0898545 0 17.9484 0 40.0453C0 58.2639 12.1758 73.6866 28.8612 78.5569C28.9514 78.5569 29.0416 78.6471 29.1318 78.6471H29.222C29.4925 78.7373 29.7631 78.8275 30.0337 78.8275C32.559 79.549 35.2648 79.9098 37.9705 80C38.3313 80 38.6019 80 38.9626 80C39.2332 80 39.5038 80 39.6842 80C39.7744 80 39.8645 80 39.8645 80C39.8645 80 39.8645 80 39.9547 80C40.0449 80 40.0449 80 40.1351 80C40.3155 80 40.4959 80 40.6763 80C40.7665 80 40.9468 80 41.037 80C62.8633 79.549 80.2702 61.7814 80.2702 40.0453ZM35.2648 58.5345C35.0844 58.5345 34.8138 58.5345 34.5433 58.4443C32.3787 57.9933 32.3787 56.0993 32.2885 54.7464C32.1983 53.3034 32.1081 52.7622 31.3866 51.5897C31.0258 51.0486 31.4768 50.5075 32.0179 50.5075C32.1081 50.5075 32.1983 50.5075 32.3787 50.5976C34.7236 51.7701 37.9705 53.7543 37.8803 55.9189C37.8803 56.0091 37.5196 58.5345 35.2648 58.5345ZM40.1351 2.61588C42.931 2.61588 45.727 2.88646 48.4327 3.5178C49.4248 3.78837 49.7856 4.41971 49.966 4.96086C50.2365 5.86277 49.966 6.94507 49.2444 7.5764C48.6131 8.20774 47.621 8.29793 46.4485 7.93717C44.0133 7.21564 41.5782 7.5764 40.1351 9.01946C39.143 10.0116 38.7822 11.3644 39.2332 12.6271C39.594 13.7094 40.7665 15.5132 44.7349 16.2348C47.8014 16.7759 50.0562 16.5955 52.8521 16.4151C54.3853 16.325 56.1892 16.2348 58.3538 16.2348C63.5848 16.2348 66.471 18.8503 67.3729 21.0149C68.0042 22.5482 67.8238 23.9912 66.8317 24.9833C64.8475 26.9675 59.7968 24.6226 57.4518 23.2697C57.1813 23.0893 57.0009 22.9991 56.7303 22.8187C56.099 22.458 55.2873 22.6383 54.9265 23.2697C54.5657 23.901 54.7461 24.7127 55.2873 25.0735C55.3774 25.1637 55.648 25.3441 56.0088 25.5245C59.0753 27.5087 60.7889 30.2144 60.7889 33.0103C60.7889 35.3553 59.5262 37.4297 57.3616 38.7826C55.648 39.7747 54.1148 39.8649 52.9423 38.8728C51.7698 37.8807 51.3188 36.0769 51.9502 34.3632C52.5815 32.4692 52.3109 30.6654 51.1385 29.3125C49.2444 27.1479 45.276 26.3362 41.037 27.1479C40.7665 27.2381 40.4959 27.2381 40.3155 27.3283C38.7822 27.7793 35.8059 28.9517 33.5512 30.9359C32.7394 28.2302 29.9435 26.5166 27.6887 25.2539C26.3359 24.4422 24.532 23.3599 24.532 22.7285C24.532 21.9168 25.5241 20.6541 26.6064 20.3836C27.5985 20.113 28.5004 20.7443 29.3122 22.0972C30.5748 24.352 32.9198 25.8852 34.9942 25.7048C36.7078 25.6147 38.1509 24.6226 38.9626 22.8187C39.594 21.4659 39.594 19.7522 39.0528 18.3092C38.6019 17.1367 37.5196 15.6034 34.9942 14.6113C34.2727 14.3407 33.5512 14.7015 33.2806 15.3329C33.01 16.0544 33.3708 16.7759 34.0021 17.0465C35.355 17.5876 36.1667 18.3092 36.5275 19.2111C36.8882 20.113 36.7078 21.0149 36.5275 21.5561C36.1667 22.458 35.6256 22.9089 34.904 22.9089C33.8217 22.9991 32.3787 22.007 31.6571 20.6541C29.6729 17.1367 26.9672 17.4073 25.9751 17.6778C23.7203 18.219 21.8263 20.4738 21.8263 22.6383C21.8263 24.8029 23.9909 26.0656 26.2457 27.4185C29.5827 29.4027 31.6571 30.8458 30.8454 33.4613C30.7552 33.7319 30.5748 33.9123 30.2141 34.0926C29.5827 34.3632 28.6808 34.3632 28.0495 34.0926C27.0574 33.6417 26.1555 32.9202 25.4339 32.2888C24.2615 31.2967 23.1792 30.3948 21.8263 30.6654C20.9244 30.7556 20.2028 31.2967 19.5715 32.2888C19.3009 32.7398 19.1206 33.2809 19.3009 33.8221C19.6617 35.0847 21.0146 35.8063 23.1792 36.9788C26.877 38.963 29.9435 40.7668 29.9435 43.4725C29.9435 43.5627 29.9435 43.6529 29.9435 43.8333C29.9435 43.9235 29.9435 44.0137 29.9435 44.1941C29.9435 44.3744 29.8533 44.4646 29.8533 44.645C29.8533 44.7352 29.7631 44.8254 29.7631 44.9156C29.7631 45.0058 29.6729 45.096 29.6729 45.1862C29.5827 45.3666 29.4925 45.4567 29.3122 45.6371C29.222 45.7273 29.1318 45.8175 29.0416 45.9077C28.3201 46.4488 27.328 46.7194 26.426 46.7194C25.1634 46.7194 23.5399 46.1783 23.2693 44.5548C22.8184 42.2099 19.0304 39.4139 15.6933 39.1434C14.0698 38.963 12.6268 39.4139 11.6347 40.406L11.2739 40.857C11.1837 40.9472 11.0935 41.1276 11.0033 41.2178C10.9131 41.3981 10.823 41.4883 10.7328 41.6687C10.7328 41.7589 10.6426 41.7589 10.6426 41.8491C10.5524 41.9393 10.5524 42.0295 10.4622 42.2099C10.372 42.2099 10.372 42.3 10.372 42.3902C10.2818 42.4804 10.2818 42.6608 10.2818 42.751C9.83085 44.7352 12.3562 46.2685 15.6933 48.3429C21.195 51.6799 25.5241 54.7464 23.9007 58.5345C23.5399 59.3462 22.8184 60.1579 21.9165 60.6991C21.0146 61.2402 19.9323 61.5108 18.9402 61.5108C16.8658 61.5108 15.1521 60.2481 14.16 57.9933C13.1679 55.7385 11.9954 54.5661 10.6426 54.5661C9.65047 54.5661 8.74855 55.1072 8.11722 56.1895C7.84664 56.8208 7.57607 57.5424 7.57607 58.3541C4.50956 52.9426 2.70574 46.6292 2.70574 40.0453C2.70574 19.3915 19.4813 2.61588 40.1351 2.61588Z" fill="#DDDDDD"/>
<path d="M67.8238 30.485C66.7415 30.485 65.8396 31.0261 65.2083 31.928C64.6671 32.83 64.5769 33.9123 65.0279 34.8142C65.0279 34.9044 65.0279 34.9044 65.1181 34.9044C65.1181 34.9945 65.1181 34.9945 65.1181 35.1749V35.2651C65.0279 35.8063 65.0279 36.5278 65.2083 37.3395C65.569 38.6022 66.4709 39.5943 67.7336 40.0453C68.1846 40.2256 68.7257 40.3158 69.1767 40.3158C71.2511 40.3158 72.6039 38.7826 73.1451 37.2493C73.1451 37.1591 73.2353 37.0689 73.2353 36.8886C73.596 34.8142 72.3334 32.83 69.6276 31.0261C68.9963 30.6654 68.4551 30.485 67.8238 30.485ZM69.1767 37.7003C68.9963 37.7003 68.8159 37.7003 68.6355 37.6101C67.5532 37.2493 67.6434 36.2572 67.7336 35.5357C67.8238 34.724 67.8238 34.4534 67.463 33.8221C67.3728 33.5515 67.5532 33.2809 67.8238 33.2809C67.914 33.2809 68.0042 33.2809 68.0042 33.3711C69.0865 34.1828 70.7099 35.4455 70.5295 36.618C70.5295 36.5278 70.1688 37.7003 69.1767 37.7003Z" fill="#DDDDDD"/>
<path d="M57.2715 9.29005L57.3617 9.38024C57.3617 9.38024 57.4519 9.47043 57.4519 9.56062V9.65081C57.6323 10.1018 57.9028 10.7331 58.444 11.2743C59.2557 12.1762 60.338 12.6271 61.5105 12.6271C61.6909 12.6271 61.8712 12.6271 62.0516 12.6271C63.2241 12.4467 64.3064 11.9056 64.9377 11.0037C65.9299 9.65081 65.7495 8.11756 65.6593 7.7568C65.6593 7.6666 65.5691 7.48622 65.5691 7.39603C64.577 4.50991 60.6988 4.05895 59.4361 3.87857C59.3459 3.87857 59.1655 3.87857 59.0753 3.87857C57.7224 3.87857 56.55 4.69029 56.1892 5.95297C55.8284 7.21565 56.2794 8.56852 57.2715 9.29005ZM59.1655 6.49412C60.6086 6.6745 62.7732 7.12546 63.1339 8.20775C63.1339 8.20775 63.4045 9.741 61.7811 9.92139C61.6909 9.92139 61.6007 9.92139 61.5105 9.92139C60.5184 9.92139 60.1576 9.10966 59.887 8.47833C59.6165 7.84699 59.4361 7.57641 58.8047 7.12546C58.6244 6.94507 58.8047 6.49412 59.1655 6.49412Z" fill="#DDDDDD"/>
</svg>
