<svg width="89" height="48" viewBox="0 0 89 48" fill="none" xmlns="http://www.w3.org/2000/svg">
<path d="M2.02504 9.74241C2.61717 9.14791 16.8016 -4.69153 41.7353 7.02016C48.7463 10.3124 55.2898 11.5251 61.129 11.5251C77.3228 11.5243 88.08 2.19779 88.2245 2.0691C88.7132 1.63487 88.7574 0.887191 88.3239 0.39848C87.8905 -0.0910202 87.1428 -0.135232 86.6525 0.297423C86.467 0.461643 67.7483 16.6223 42.742 4.87662C16.2355 -7.57169 0.496531 7.91942 0.340997 8.07732C-0.117713 8.54235 -0.112978 9.29002 0.351258 9.74952C0.816283 10.2098 1.56633 10.2043 2.02504 9.74241Z" fill="#DDDDDD"/>
<path d="M86.6533 18.5344C86.4678 18.6986 67.7491 34.8593 42.7428 23.1136C16.2355 10.6645 0.497321 26.1572 0.340997 26.3143C-0.117713 26.7793 -0.112978 27.527 0.351258 27.9865C0.816283 28.4468 1.56633 28.4421 2.02504 27.9794C2.61717 27.3841 16.8016 13.5439 41.7353 25.2572C48.7463 28.5494 55.2898 29.7621 61.129 29.7621C77.3228 29.7613 88.08 20.4348 88.2245 20.3061C88.7132 19.8719 88.7574 19.1242 88.3239 18.6355C87.8913 18.146 87.1436 18.1018 86.6533 18.5344Z" fill="#DDDDDD"/>
<path d="M86.6535 36.7723C86.468 36.9365 67.7493 53.0979 42.743 41.3515C16.2365 28.9024 0.497506 44.3951 0.341972 44.5522C-0.116737 45.0172 -0.112 45.7649 0.352236 46.2244C0.817261 46.6847 1.5673 46.6799 2.02601 46.2173C2.61815 45.6228 16.8026 31.7818 41.7363 43.495C48.7472 46.7873 55.2907 48 61.13 48C77.3238 47.9992 88.081 38.6727 88.2254 38.544C88.7141 38.1097 88.7584 37.3621 88.3249 36.8733C87.8915 36.3838 87.1438 36.3388 86.6535 36.7723Z" fill="#DDDDDD"/>
</svg>
