<svg width="173" height="188" viewBox="0 0 173 188" fill="none" xmlns="http://www.w3.org/2000/svg">
<path d="M40.2474 0.69688C44.0841 6.9688 51.3017 10.9271 52.5948 11.6325C52.7461 11.715 52.8798 11.8263 52.9884 11.9602C53.6811 12.8139 54.1124 13.8116 54.3147 14.8704C59.6816 13.7637 65.707 13.2157 72.4764 13.2157C77.1345 13.2157 81.3939 13.471 85.2914 13.9861L85.3637 13.9258L85.5089 13.8339C86.8021 13.1285 94.0197 9.17019 97.8563 2.89826C98.3891 2.02739 99.6859 1.92686 100.168 2.85825C103.113 8.54083 103.35 14.0827 101.822 18.6916C105.749 20.633 109.085 23.1 111.931 26.1038C118.372 32.9 121.95 41.2349 126.233 57.2386L126.821 59.4691C127.178 60.84 129.059 68.2122 129.873 71.3437L130.558 73.9181C131.524 77.4459 132.576 80.8667 134.155 85.6817L134.064 85.4048C135.938 84.2646 137.835 83.284 139.169 82.7159C149.617 78.2671 160.828 79.1195 171.978 87.629C172.974 88.3892 172.452 89.9793 171.199 90.0021C168.898 90.0439 167.404 90.9299 166.458 92.5259C165.411 94.2917 165.197 96.8615 165.262 98.3887C166.763 100.038 168.189 101.906 169.531 104.001C170.207 105.056 169.173 106.371 167.988 105.964C165.811 105.216 164.104 105.538 162.669 106.714C160.825 108.225 159.666 111.14 159.366 112.443C159.065 113.745 157.249 113.831 156.822 112.561C156.048 110.258 154.658 107.901 153.994 107.006C151.619 103.809 149.507 103.597 146.677 107.638C145.952 108.673 144.326 108.198 144.273 106.935C144.196 105.096 143.429 101.197 138.113 97.6566C144.322 116.908 146.52 127.955 146.52 144.001C146.52 150.488 145.826 156.161 144.458 161.076C149.816 159.036 153.332 161.525 153.239 166.926C153.142 172.509 149.232 178.813 143.631 181.251C131.952 186.333 121.411 188.005 112.703 186.771C106.511 187.673 99.2329 187.893 90.3231 187.652L88.4984 187.599L78.9801 187.239C75.2087 187.095 72.8129 187.021 70.5786 186.992L67.5009 186.977C65.054 186.984 62.7777 187.04 59.6441 187.166L53.5688 187.438C35.2922 188.267 27.8216 187.765 20.2185 183.85L19.3227 183.373C9.18696 177.813 3.15937 166.286 0.880344 146.376L0.642526 144.129C-1.14513 125.791 0.799345 110.242 6.45238 87.6793C6.63969 86.9317 6.83222 86.1702 7.03538 85.373L10.6122 71.5669C16.4617 49.0275 20.2284 39.0552 27.5417 30.1667C30.6251 26.4192 34.209 23.3036 38.3967 20.8095C37.9914 20.204 37.6302 19.5855 37.3096 18.9545C34.7585 13.9333 34.4449 7.39392 37.9352 0.656865C38.4178 -0.274524 39.7146 -0.173989 40.2474 0.69688ZM72.4764 15.8601C51.6682 15.8601 38.4161 21.1122 29.5838 31.8469C22.8531 40.0273 19.1925 49.3719 13.7873 69.8776L9.59818 86.0249L8.58416 90.0677C3.33362 111.422 1.56767 126.364 3.27447 143.872C5.27378 164.381 10.9731 175.777 20.5946 181.055C27.6575 184.93 34.4576 185.588 51.4293 184.884L56.3655 184.661C61.604 184.422 64.5877 184.332 68.069 184.332L70.608 184.347C72.16 184.368 73.7853 184.409 75.8816 184.48L89.0349 184.97L92.8432 185.064C97.4326 185.144 101.554 185.086 105.291 184.855C100.233 182.871 96.0977 179.645 93.097 175.33L92.7306 174.788C85.6882 164.086 88.2428 150.317 99.0104 143.484L99.3386 143.282L94.2763 139.97C93.2017 139.266 93.66 137.598 94.9432 137.543L116.148 136.623C117.211 136.577 117.89 137.741 117.327 138.643L106.504 156.003L106.371 156.183C105.659 157.001 104.245 156.639 104.074 155.5L103.1 149.005L102.831 149.279C87.4663 165.182 102.168 180.367 132.695 171.718C135.416 170.947 139.839 166.484 140.931 163.266C140.975 163.138 141.037 163.018 141.115 162.911C142.945 157.705 143.876 151.444 143.876 144.001C143.876 127.424 141.48 116.287 134.545 95.246L132.853 90.1638C130.661 83.588 129.344 79.4365 128.18 75.2441L127.495 72.704L123.675 57.9115C119.504 42.3278 116.06 34.3049 110.012 27.9227C107.426 25.1934 104.389 22.9338 100.803 21.1373C99.9264 22.8637 98.7611 24.4807 97.2815 25.9915C95.3908 27.9221 90.3293 28.2858 87.4152 26.1292C84.5208 23.987 82.9884 19.8301 83.928 16.4805C80.434 16.0656 76.6258 15.8601 72.4764 15.8601ZM113.757 139.371L99.1623 140.006L102.622 142.273C103.478 142.833 103.4 144.113 102.481 144.565C91.0968 150.171 88.1727 163.617 95.268 173.82C103.3 185.371 120.568 188.403 142.576 178.826C147.194 176.816 150.516 171.461 150.595 166.88V166.542C150.53 162.901 148.308 161.77 143.747 164.306L143.26 164.583L143.088 164.991C141.356 168.841 136.747 173.319 133.416 174.262C116.587 179.03 103.503 177.302 97.4649 170.345C91.6242 163.616 93.8345 153.603 103.151 145.314L103.314 145.189C104.097 144.678 105.192 145.136 105.337 146.105L106.159 151.562L113.757 139.371ZM30.3567 88.011L30.5871 87.8394C32.6832 86.3239 34.9322 86.3251 37.3227 87.7629C41.0817 90.024 45.3604 97.1114 47.1472 99.3052C47.6079 99.8709 47.4701 100.717 46.8869 101.157C46.3037 101.596 45.496 101.462 45.0352 100.897C43.9657 99.5835 38.9828 91.9615 35.9331 90.0128C33.9244 88.7293 32.274 89.1805 30.2926 91.9352C27.9485 95.1943 28.4909 98.1251 31.5139 101.026C34.1144 103.522 38.413 105.759 43.0957 107.293C43.7897 107.52 44.1681 108.267 43.9408 108.961C43.7136 109.655 42.9668 110.033 42.2728 109.806C37.2461 108.16 32.6178 105.751 29.6827 102.934C29.1463 102.419 28.6683 101.893 28.2509 101.356C25.2447 103.52 21.7394 105.418 20.2711 106.453C19.6746 106.873 18.8398 106.676 18.4421 106.064C18.0443 105.451 18.2344 104.655 18.8308 104.235C19.7703 103.573 23.7332 101.316 26.8576 99.0261C25.6767 96.2843 26.0186 93.3486 28.1458 90.3911C28.2641 90.2266 28.383 90.0677 28.5025 89.9143L28.7988 90.1533C25.7112 87.5876 22.7497 87.9242 19.6445 90.7374C16.9732 93.1575 14.4421 97.2896 12.5858 101.854C12.3106 102.53 11.5393 102.856 10.8628 102.581C10.1864 102.306 9.86107 101.534 10.1362 100.858C12.1289 95.9581 14.8541 91.5091 17.869 88.7777C21.8406 85.1796 26.2078 84.6501 30.3567 88.011ZM165.575 102.925C159.007 93.9845 148.442 88.8933 136.03 91.3216L136.599 93.0366C136.692 93.3149 136.784 93.5916 136.874 93.8666C144.243 97.6658 145.862 101.994 146.411 103.817C150.253 100.557 154.221 101.162 158.006 108.586C159.523 105.268 162.561 102.915 165.575 102.925ZM167.892 87.9715C158.306 81.5792 146.091 80.5626 134.912 87.9618L135.205 88.8387C137.166 88.4687 139.055 88.2337 140.382 88.1627C147.654 87.7734 154.475 89.5402 160.429 93.9726C160.774 94.2239 161.128 94.4996 161.491 94.7997C161.905 95.1363 162.315 95.4865 162.72 95.8504C163.018 92.2254 165.063 88.9899 167.892 87.9715ZM98.7948 6.22032C96.2248 9.47876 93.6787 11.702 90.6574 13.7767C89.8467 14.3334 88.6182 15.1066 86.9718 16.0963C85.5639 18.2251 86.4932 21.8977 88.6942 23.7699C90.8951 25.642 94.7796 24.8223 95.3922 24.1412C96.6436 22.7499 102.646 16.9662 98.7948 6.22032ZM39.3089 4.01894C36.601 11.5739 38.764 16.676 40.7222 19.5235C44.0255 17.8195 47.6791 16.466 51.7258 15.4561C51.6311 14.8869 51.4361 14.3549 51.1319 13.8949C49.4855 12.9052 48.257 12.132 47.4463 11.5753C44.425 9.50061 41.8789 7.27738 39.3089 4.01894Z" fill="#757575"/>
<path d="M36.3617 44.0728C39.4043 44.0728 41.8709 41.6063 41.8709 38.5636C41.8709 35.521 39.4043 33.0544 36.3617 33.0544C33.3191 33.0544 30.8525 35.521 30.8525 38.5636C30.8525 41.6063 33.3191 44.0728 36.3617 44.0728Z" fill="#757575"/>
<path d="M73.8194 46.2747C76.8621 46.2747 79.3286 43.8082 79.3286 40.7655C79.3286 37.7229 76.8621 35.2563 73.8194 35.2563C70.7768 35.2563 68.3102 37.7229 68.3102 40.7655C68.3102 43.8082 70.7768 46.2747 73.8194 46.2747Z" fill="#757575"/>
<path d="M48.8948 52.1416C47.5923 51.8831 45.9623 51.7084 44.3112 51.8016C41.3119 51.971 39.0874 53.015 38.2956 55.358C37.4908 57.7393 38.6175 59.8801 40.8766 61.736L41.2357 62.0209L40.8715 62.1232C38.2826 62.9059 36.517 64.418 36.2276 66.842L36.1932 67.2544C36.0644 69.8908 37.7798 71.7682 40.554 73.0122C41.8504 73.5935 43.2033 73.9698 44.3978 74.191L45.1228 74.3091C45.8471 74.402 46.5096 73.8902 46.6025 73.1659C46.6861 72.514 46.2799 71.9122 45.6698 71.7306L45.3743 71.674C44.2663 71.5073 42.89 71.1616 41.636 70.5993C39.7444 69.7511 38.7708 68.6855 38.8344 67.3834C38.9026 65.987 39.9944 65.0783 41.9812 64.5574C42.6881 64.3721 43.4425 64.258 44.188 64.2023L44.6668 64.1742C44.8766 64.1656 45.0394 64.1643 45.1438 64.1668C46.5953 64.2016 47.0339 62.2106 45.7021 61.6322L45.2534 61.4186C45.1236 61.3531 44.9754 61.276 44.8124 61.1877C44.1303 60.8182 43.4589 60.3948 42.8539 59.9299C41.1492 58.6199 40.4146 57.3474 40.8008 56.2047C41.1574 55.1497 42.42 54.557 44.4603 54.4418C45.6504 54.3746 46.8697 54.4775 47.8884 54.6461L48.4547 54.7506C49.1681 54.9062 49.8726 54.4538 50.0281 53.7404C50.1681 53.0982 49.8157 52.4634 49.2237 52.2295L48.9941 52.1618L48.8948 52.1416Z" fill="#757575"/>
</svg>
