<svg width="182" height="175" viewBox="0 0 182 175" fill="none" xmlns="http://www.w3.org/2000/svg">
<g clip-path="url(#clip0)">
<path d="M38.4407 84.8479C36.3034 82.9148 34.2802 79.6128 32.7973 75.9627C32.7449 75.8342 32.6677 75.7172 32.5701 75.6186C32.4724 75.5199 32.3564 75.4415 32.2284 75.3877C32.1005 75.3339 31.9632 75.3058 31.8244 75.3051C31.6856 75.3043 31.548 75.3309 31.4195 75.3833C31.291 75.4358 31.1741 75.513 31.0754 75.6106C30.9768 75.7082 30.8983 75.8243 30.8445 75.9523C30.7907 76.0802 30.7626 76.2175 30.7619 76.3563C30.7611 76.4951 30.7877 76.6327 30.8402 76.7612C32.4341 80.6635 34.6104 84.2326 37.0208 86.4148C39.4312 88.5971 42.0278 89.3716 44.5913 88.435C44.7855 88.7854 45 89.1242 45.2337 89.4496C47.44 92.5174 49.8954 93.1568 52.57 91.5509C55.5718 89.7498 58.9938 84.0795 60.4226 82.3264C60.5082 82.2164 60.5707 82.0904 60.6067 81.9558C60.6426 81.8212 60.6512 81.6807 60.6319 81.5427C60.6126 81.4047 60.5658 81.272 60.4942 81.1524C60.4227 81.0329 60.3279 80.9289 60.2155 80.8466C59.9897 80.6822 59.7089 80.6119 59.4322 80.6505C59.1556 80.6892 58.9048 80.8337 58.7326 81.0537C57.8801 82.1043 53.8968 88.1949 51.4593 89.7588C49.8534 90.7854 48.5356 90.4252 46.9567 88.2219C45.0836 85.6194 45.5158 83.275 47.9323 80.9576C50.0125 78.9615 53.4465 77.1724 57.1897 75.9477C57.4524 75.8576 57.6692 75.6678 57.793 75.4192C57.9168 75.1707 57.9378 74.8833 57.8514 74.6194C57.765 74.3555 57.5781 74.1361 57.3313 74.0089C57.0844 73.8817 56.7974 73.8567 56.5323 73.9395C53.1703 75.0411 50.0305 76.566 47.7221 78.3551C45.2127 75.8576 40.5539 73.4292 38.948 72.2975C38.8325 72.2198 38.7027 72.1658 38.5661 72.1388C38.4295 72.1118 38.2889 72.1123 38.1525 72.1402C38.0162 72.1682 37.8867 72.223 37.7718 72.3016C37.6568 72.3801 37.5587 72.4808 37.4831 72.5977C37.3333 72.8326 37.2809 73.1166 37.3369 73.3895C37.3929 73.6624 37.553 73.9027 37.7833 74.0596C38.7498 74.741 43.7148 77.5326 46.1042 79.7629C44.12 81.8161 43.2855 84.0915 43.8198 86.4479C42.0368 87.0902 40.2597 86.5079 38.4407 84.8479Z" fill="#FED777"/>
<path d="M101.127 115.55C101.294 115.468 101.438 115.343 101.541 115.188C101.645 115.033 101.706 114.853 101.717 114.666C101.729 114.48 101.691 114.294 101.607 114.127C101.524 113.96 101.397 113.818 101.241 113.716L98.4731 111.915L110.141 111.39L104.065 121.133L103.411 116.793C103.384 116.618 103.314 116.453 103.208 116.313C103.101 116.172 102.961 116.061 102.801 115.988C102.64 115.915 102.464 115.884 102.288 115.896C102.112 115.909 101.942 115.965 101.793 116.06L101.661 116.159C95.7595 121.412 93.4301 127.53 95.0421 132.519C95.7665 132.519 96.4889 132.542 97.2093 132.588C95.5404 128.932 96.7261 124.183 101.412 119.329L101.628 119.11L102.396 124.297C102.426 124.496 102.511 124.683 102.643 124.835C102.775 124.988 102.948 125.099 103.141 125.156C103.334 125.214 103.539 125.215 103.733 125.159C103.926 125.104 104.1 124.994 104.233 124.843L104.339 124.699L112.99 110.825C113.091 110.662 113.147 110.474 113.15 110.281C113.153 110.089 113.103 109.899 113.006 109.733C112.909 109.567 112.768 109.43 112.599 109.338C112.43 109.246 112.239 109.202 112.047 109.21L95.0991 109.946C94.8757 109.955 94.6611 110.035 94.4862 110.175C94.3113 110.314 94.1851 110.505 94.1257 110.721C94.0663 110.936 94.0768 111.165 94.1557 111.374C94.2346 111.583 94.3778 111.762 94.5648 111.885L98.6112 114.532L98.35 114.694C95.363 116.55 93.0113 119.27 91.6076 122.494C90.2039 125.719 89.8146 129.293 90.4914 132.744C91.1958 132.656 91.8962 132.595 92.5926 132.561C91.2598 125.852 94.2736 118.924 101.127 115.55Z" fill="#FED777"/>
<path d="M134.677 128.746C135.773 124.816 136.325 120.284 136.325 115.097C136.325 102.273 134.569 93.442 129.607 78.055C133.855 80.8856 134.47 84.0015 134.53 85.4723C134.54 85.693 134.618 85.9052 134.754 86.0791C134.89 86.2529 135.078 86.3798 135.29 86.4417C135.502 86.5036 135.728 86.4976 135.936 86.4244C136.145 86.3512 136.325 86.2146 136.451 86.0336C138.715 82.8037 140.402 82.9718 142.299 85.5294C143.247 86.9019 144.007 88.395 144.559 89.969C144.633 90.187 144.776 90.3752 144.966 90.5049C145.156 90.6347 145.383 90.699 145.613 90.6882C145.843 90.6773 146.063 90.5919 146.24 90.4448C146.417 90.2977 146.542 90.097 146.594 89.8729C146.835 88.8313 147.759 86.5019 149.233 85.2952C150.383 84.3557 151.746 84.0945 153.487 84.6949C153.694 84.7665 153.919 84.7717 154.13 84.7097C154.34 84.6477 154.526 84.5216 154.662 84.3489C154.798 84.1763 154.876 83.9656 154.887 83.7462C154.897 83.5269 154.839 83.3097 154.72 83.1249C153.71 81.5373 152.568 80.0371 151.307 78.6403C151.253 77.4216 151.424 75.3654 152.262 73.9546C153.018 72.6788 154.213 71.9704 156.053 71.9374C156.273 71.9335 156.485 71.8613 156.662 71.7309C156.839 71.6005 156.97 71.4184 157.038 71.2098C157.107 71.0012 157.108 70.7765 157.043 70.5669C156.978 70.3573 156.849 70.1732 156.674 70.0402C147.762 63.2383 138.802 62.5568 130.451 66.1139C129.044 66.7381 127.682 67.4561 126.372 68.2632C125.15 64.532 124.324 61.8454 123.568 59.0808L123.022 57.0246C122.37 54.5211 120.866 48.6197 120.581 47.533L120.107 45.75C116.685 32.9594 113.824 26.2955 108.676 20.8653C106.358 18.4229 103.622 16.416 100.595 14.9399C101.82 11.2567 101.628 6.83509 99.2746 2.28442C98.8903 1.53998 97.8547 1.62103 97.4285 2.31744C94.3637 7.33039 88.5882 10.4942 87.5616 11.0586L87.4446 11.1306L87.3875 11.1786C83.9903 10.7553 80.569 10.5548 77.1455 10.5783C71.7423 10.5783 66.9185 11.0166 62.6289 11.9021C62.4771 11.0458 62.1139 10.241 61.5723 9.5607C61.4854 9.45301 61.3783 9.36329 61.2571 9.29654C60.2215 8.73521 54.4551 5.57135 51.3873 0.558405C50.9611 -0.138005 49.9254 -0.219052 49.5382 0.525385C46.7496 5.91055 47.0017 11.1366 49.0399 15.15C49.2985 15.6615 49.5882 16.1568 49.9074 16.6329C46.6017 18.6015 43.6658 21.1331 41.2323 24.1132C35.3879 31.2154 32.3771 39.1881 27.7003 57.2017L24.8426 68.2362C24.6805 68.8756 24.5244 69.4849 24.3744 70.0823C19.8717 88.1139 18.3018 100.544 19.7306 115.199L19.9227 117C20.9433 125.912 22.9035 132.723 25.8542 137.772C26.5476 137.553 27.2441 137.343 27.9555 137.151C24.8306 132.048 22.8074 124.843 21.8469 114.998C20.4841 101.003 21.8949 89.0624 26.0914 71.9944L26.9019 68.7615L30.2518 55.8539C34.5714 39.4643 37.4951 31.9959 42.8773 25.458C49.9344 16.879 60.5277 12.6795 77.1605 12.6795C80.2184 12.6654 83.2744 12.8308 86.3129 13.1748C85.5625 15.8524 86.7872 19.1783 89.1016 20.8894C91.4159 22.6004 95.4743 22.3212 96.9872 20.7783C98.1139 19.6351 99.0576 18.3249 99.7849 16.894C102.538 18.2552 105.03 20.0914 107.145 22.3182C111.981 27.4212 114.734 33.833 118.066 46.2873L121.118 58.1112L121.668 60.1404C122.598 63.4934 123.652 66.8103 125.402 72.0664L126.756 76.1278C132.297 92.9377 134.212 101.85 134.212 115.097C134.212 121.046 133.471 126.05 132.006 130.214C131.943 130.3 131.893 130.395 131.859 130.496C131.622 131.148 131.303 131.767 130.91 132.339C132.009 131.901 133.092 131.438 134.188 130.991L134.677 128.746ZM51.7655 15.6063C50.1986 13.3279 48.4636 9.25151 50.6339 3.21196C52.4675 5.55796 54.6633 7.59672 57.1387 9.25151C57.7871 9.70378 58.7647 10.3221 60.0714 11.1066C60.3162 11.4846 60.4778 11.9102 60.5457 12.3553C57.5024 13.0935 54.5557 14.1845 51.7655 15.6063ZM95.4623 19.2954C94.97 19.8387 91.8602 20.4961 90.1071 18.9952C88.3541 17.4944 87.6067 14.5646 88.7293 12.8626C90.0461 12.0722 91.0287 11.4538 91.6771 11.0075C94.1552 9.35306 96.3549 7.3155 98.1939 4.971C101.259 13.562 96.4619 18.1848 95.4623 19.2954ZM151.556 82.2724C149.155 82.2724 146.721 84.1455 145.508 86.7961C142.482 80.8616 139.309 80.3813 136.238 82.9869C135.8 81.528 134.506 78.07 128.617 75.0322C128.545 74.8131 128.47 74.5909 128.398 74.3688L127.941 72.997C137.862 71.0518 146.306 75.1192 151.556 82.2724ZM149.275 76.6171C148.951 76.3269 148.624 76.0478 148.293 75.7796C147.993 75.5395 147.72 75.3174 147.444 75.1162C142.686 71.5742 137.238 70.1633 131.421 70.4725C130.031 70.5678 128.649 70.7483 127.281 71.0128L127.047 70.3134C135.983 64.3999 145.748 65.2104 153.408 70.3134C151.148 71.1299 149.524 73.7144 149.275 76.6111V76.6171Z" fill="#FED777"/>
<path d="M67.1526 42.4449L66.9665 42.613C66.8134 42.7481 66.5912 42.9312 66.3121 43.1443C65.5303 43.733 64.6987 44.2523 63.8266 44.6962C61.1483 46.1208 58.0965 46.6868 55.0855 46.3173C52.0745 45.9478 49.2501 44.6608 46.9957 42.631C46.2561 41.9926 45.575 41.2894 44.9605 40.5298L44.6603 40.1546C44.4892 39.9294 44.3601 39.7553 44.3061 39.6503C44.1743 39.436 43.9704 39.2758 43.731 39.1984C43.4917 39.1211 43.2326 39.1316 43.0003 39.2282C42.7681 39.3248 42.5779 39.5011 42.464 39.7254C42.3501 39.9497 42.3199 40.2072 42.379 40.4517C42.8229 42.014 43.6059 43.4592 44.6723 44.6842C46.8936 47.3588 50.1716 49.1869 54.6592 49.7512C59.1469 50.3156 62.764 49.31 65.5706 47.2508C66.9038 46.3211 68.0142 45.1072 68.8216 43.6967C68.9382 43.4744 68.972 43.2178 68.9167 42.9729C68.8615 42.7281 68.7208 42.5108 68.52 42.3602C68.3192 42.2096 68.0713 42.1354 67.8207 42.1509C67.5701 42.1664 67.3333 42.2707 67.1526 42.4449Z" fill="#FED777"/>
<path d="M41.2623 30.8581C41.5574 30.9803 41.8868 30.9918 42.1896 30.8903C42.4925 30.7887 42.7485 30.5811 42.9103 30.3058L42.9913 30.1467C43.2074 29.6984 43.514 29.2998 43.8919 28.976C44.6248 28.321 45.5809 27.9719 46.5634 28.0004C47.6381 28.0004 48.3075 28.5017 48.7637 29.4352C48.9555 29.8222 49.0909 30.2346 49.166 30.66L49.187 30.8341C49.2196 31.1832 49.3896 31.505 49.6595 31.7288C49.9295 31.9525 50.2772 32.0599 50.6263 32.0273C50.9754 31.9946 51.2973 31.8246 51.521 31.5547C51.7448 31.2848 51.8522 30.937 51.8195 30.5879C51.7303 29.781 51.4986 28.9964 51.1351 28.2706C50.2676 26.4995 48.7337 25.3558 46.5634 25.3558C44.9282 25.3257 43.3421 25.9155 42.1238 27.0068C41.4534 27.5959 40.9196 28.3243 40.5599 29.1411C40.4286 29.4622 40.4287 29.8221 40.56 30.1432C40.6914 30.4643 40.9436 30.721 41.2623 30.8581Z" fill="#FED777"/>
<path d="M73.6815 33.9019C73.704 34.0753 73.7608 34.2425 73.8485 34.3939C73.9363 34.5452 74.0532 34.6776 74.1925 34.7833C74.3318 34.8891 74.4907 34.9662 74.66 35.01C74.8293 35.0539 75.0057 35.0637 75.1788 35.0388C75.352 35.014 75.5184 34.955 75.6686 34.8653C75.8187 34.7756 75.9496 34.6569 76.0535 34.5163C76.1574 34.3756 76.2324 34.2156 76.274 34.0458C76.3156 33.8759 76.3231 33.6994 76.296 33.5266C76.1523 32.6688 75.8302 31.8507 75.3504 31.1252C74.9028 30.4141 74.3127 29.8034 73.6173 29.3317C72.9219 28.86 72.1363 28.5375 71.3101 28.3846C70.3937 28.1772 69.4378 28.2285 68.5489 28.5327C67.66 28.837 66.8732 29.3822 66.2761 30.1076C65.73 30.7181 65.2997 31.423 65.0064 32.1878C64.9036 32.4989 64.9201 32.837 65.0526 33.1365C65.1852 33.436 65.4243 33.6756 65.7235 33.8088C66.0228 33.942 66.3608 33.9592 66.6721 33.8571C66.9833 33.7551 67.2455 33.541 67.4078 33.2565L67.4828 33.0914C67.665 32.6385 67.9251 32.2209 68.2513 31.8577C68.5408 31.4806 68.933 31.195 69.3808 31.0353C69.8286 30.8755 70.3129 30.8484 70.7758 30.9571C71.255 31.0413 71.7113 31.225 72.1151 31.4964C72.5189 31.7679 72.8613 32.121 73.1201 32.5331C73.3613 32.9014 73.5398 33.3071 73.6484 33.7338L73.6815 33.9019Z" fill="#FED777"/>
<path d="M21.2586 118.642C12.5114 115.766 3.43404 122.379 0.891544 130.667C-1.97815 140.026 2.39243 150.313 9.27549 156.761C16.9991 164.002 27.4212 167.4 37.4921 169.876C48.8031 172.609 60.3515 174.243 71.9765 174.757C83.5806 175.271 95.2068 174.93 106.761 173.739C112.608 173.16 118.438 172.394 124.243 171.485C129.764 170.617 135.281 169.657 140.705 168.315C150.869 165.806 160.859 161.789 168.706 154.681C175.667 148.377 180.74 139.69 181.091 130.148C181.433 120.869 177.411 111.384 170.36 105.314C162.732 98.7461 152.487 96.5398 142.65 96.4917C140.213 96.4767 137.781 96.5968 135.356 96.8129C133.636 96.963 133.621 99.6646 135.356 99.5145C144.628 98.698 154.567 99.1693 162.972 103.561C166.904 105.632 170.306 108.582 172.913 112.181C175.521 115.78 177.264 119.931 178.008 124.312C179.536 133.044 176.507 141.767 170.918 148.482C164.677 155.969 156.035 160.754 146.874 163.752C136.728 167.054 125.981 168.675 115.427 170.056C104.345 171.529 93.179 172.282 81.9994 172.31C70.9898 172.346 59.9976 171.432 49.145 169.579C43.7465 168.644 38.4001 167.43 33.1276 165.941C28.3758 164.587 23.681 162.939 19.3194 160.595C11.2146 156.233 4.27454 149.032 2.90573 139.597C2.30538 135.35 3.05282 130.922 5.45724 127.329C7.65754 124.027 11.1456 121.529 15.0629 120.821C16.8941 120.51 18.7739 120.661 20.5321 121.259C22.1891 121.803 22.8975 119.194 21.2526 118.654L21.2586 118.642Z" fill="#FED777"/>
<path d="M163.999 110.489L164.254 110.678C164.218 110.651 164.038 110.507 164.23 110.663C164.368 110.774 164.506 110.885 164.641 110.999C164.908 111.228 165.169 111.468 165.421 111.714C165.925 112.207 166.397 112.73 166.835 113.281C166.988 113.476 166.835 113.296 166.817 113.26L167.006 113.512L167.283 113.899C167.493 114.199 167.694 114.517 167.883 114.833C168.245 115.439 168.571 116.066 168.858 116.712L168.946 116.907C169.084 117.222 168.873 116.724 168.946 116.925C169.006 117.075 169.066 117.225 169.123 117.369C169.255 117.717 169.375 118.069 169.483 118.423C169.687 119.081 169.855 119.751 169.984 120.428C170.018 120.602 170.048 120.776 170.074 120.95C170.074 121.037 170.101 121.127 170.113 121.214C170.149 121.431 170.074 120.875 170.113 121.214C170.152 121.554 170.188 121.917 170.209 122.271C170.252 122.971 170.252 123.673 170.209 124.372C170.221 124.761 170.184 125.149 170.098 125.528C170.194 125.249 170.098 125.435 170.098 125.528C170.098 125.621 170.062 125.774 170.038 125.894C170.008 126.068 169.975 126.239 169.939 126.413C169.772 127.208 169.544 127.989 169.258 128.749C169.009 129.412 169.534 130.25 170.2 130.409C170.545 130.495 170.911 130.445 171.22 130.27C171.53 130.094 171.76 129.807 171.863 129.466C174.022 123.724 172.869 116.835 169.201 111.954C168.112 110.497 166.815 109.21 165.349 108.133C164.776 107.713 163.818 108.019 163.5 108.616C163.329 108.928 163.283 109.294 163.374 109.638C163.464 109.982 163.684 110.278 163.987 110.465L163.999 110.489Z" fill="#FED777"/>
<path d="M9.30547 129.919C8.3829 132.021 7.96175 134.308 8.07532 136.6C8.18889 138.893 8.83407 141.127 9.95985 143.127C10.5941 144.249 11.3834 145.276 12.3042 146.177C12.4279 146.31 12.577 146.416 12.7427 146.49C12.9084 146.564 13.0873 146.604 13.2687 146.607C13.45 146.61 13.6302 146.577 13.7984 146.509C13.9666 146.441 14.1194 146.34 14.2477 146.211C14.3759 146.083 14.477 145.93 14.545 145.762C14.6129 145.594 14.6463 145.414 14.6431 145.232C14.6399 145.051 14.6002 144.872 14.5264 144.706C14.4525 144.541 14.3461 144.392 14.2134 144.268C13.8594 143.922 13.5266 143.555 13.2168 143.169C13.1838 143.127 13.1477 143.085 13.1147 143.04C13.1447 143.079 13.2738 143.256 13.1147 143.04L12.9226 142.773C12.7755 142.563 12.6374 142.35 12.5024 142.131C12.2461 141.709 12.0136 141.273 11.8059 140.825C11.7519 140.711 11.7009 140.591 11.6468 140.474C11.7429 140.693 11.6469 140.492 11.6168 140.39C11.5238 140.152 11.4367 139.909 11.3587 139.666C11.2036 139.197 11.0753 138.718 10.9745 138.234C10.9234 138 10.8814 137.766 10.8424 137.529C10.8424 137.457 10.8214 137.385 10.8094 137.313C10.8094 137.313 10.8394 137.559 10.8094 137.4C10.7793 137.241 10.7793 137.145 10.7673 137.016C10.7229 136.524 10.7038 136.03 10.7103 135.536C10.7103 135.296 10.7103 135.058 10.7433 134.821C10.7433 134.692 10.7613 134.566 10.7763 134.44C10.7913 134.314 10.8244 134.029 10.7763 134.308C10.8553 133.747 10.9706 133.191 11.1215 132.645C11.1966 132.381 11.2776 132.12 11.3707 131.861C11.4127 131.738 11.4577 131.618 11.5028 131.501C11.5178 131.459 11.6048 131.243 11.5388 131.405C11.4727 131.567 11.6018 131.267 11.6018 131.264C11.902 130.622 11.8119 129.784 11.1185 129.418C10.5182 129.118 9.57563 129.211 9.26944 129.901L9.30547 129.919Z" fill="#FED777"/>
<path d="M136.265 162.69C140.612 161.592 144.836 160.057 148.873 158.109C152.868 156.187 156.657 153.861 160.18 151.169C162.226 149.618 164.18 147.952 166.034 146.177C166.284 145.922 166.424 145.579 166.424 145.222C166.424 144.865 166.284 144.523 166.034 144.268C165.777 144.021 165.435 143.884 165.079 143.884C164.723 143.884 164.381 144.021 164.125 144.268C162.56 145.776 160.92 147.205 159.211 148.548L158.911 148.779C159.1 148.632 158.788 148.873 158.737 148.912L158.085 149.401C157.649 149.725 157.209 150.043 156.764 150.355C155.876 150.98 154.975 151.58 154.063 152.156C152.224 153.317 150.329 154.385 148.383 155.356C147.411 155.839 146.427 156.299 145.433 156.737L145.028 156.911L144.856 156.986C144.856 156.986 144.655 157.07 144.787 157.016C144.919 156.962 144.727 157.04 144.715 157.043L144.544 157.115L144.136 157.284C143.635 157.488 143.127 157.686 142.635 157.884C140.326 158.754 137.969 159.49 135.575 160.087C135.231 160.186 134.94 160.415 134.764 160.726C134.588 161.037 134.541 161.405 134.632 161.75C134.734 162.091 134.964 162.38 135.274 162.556C135.584 162.731 135.95 162.78 136.295 162.693L136.265 162.69Z" fill="#FED777"/>
<path d="M72.6009 165.869C76.4341 167.913 80.7597 168.798 85.0552 169.141C90.3384 169.558 95.6635 169.105 100.887 168.285C104.228 167.763 107.539 167.057 110.816 166.223C111.162 166.127 111.455 165.898 111.632 165.587C111.809 165.275 111.855 164.905 111.759 164.56C111.663 164.214 111.435 163.921 111.123 163.744C110.811 163.567 110.442 163.522 110.096 163.617C107.22 164.35 104.315 164.983 101.391 165.481C100.694 165.601 99.9941 165.713 99.2897 165.815L98.2901 165.956L98.0529 165.986L97.4526 166.058C96.1258 166.22 94.797 166.347 93.4662 166.439C91.0177 166.616 88.5604 166.64 86.1089 166.511C85.5325 166.477 84.9572 166.433 84.3828 166.379C84.1127 166.355 83.8395 166.328 83.5694 166.295L83.1941 166.253L82.978 166.226C82.7139 166.193 83.1401 166.247 82.978 166.226C81.9364 166.079 80.9008 165.899 79.8742 165.665C78.7717 165.414 77.6851 165.099 76.6203 164.719L75.8818 164.44C75.7511 164.397 75.6237 164.345 75.5006 164.284C75.5246 164.284 75.8008 164.41 75.5696 164.314L75.4045 164.242C74.9162 164.026 74.436 163.791 73.9637 163.539C73.6544 163.358 73.2858 163.307 72.939 163.398C72.5923 163.489 72.2957 163.713 72.1146 164.023C71.9335 164.332 71.8826 164.7 71.9733 165.047C72.0639 165.394 72.2886 165.691 72.5979 165.872L72.6009 165.869Z" fill="#FED777"/>
<path d="M27.5562 137.409C28.531 136.355 29.7081 135.509 31.0173 134.921C31.601 134.662 32.203 134.448 32.8183 134.278C33.4716 134.105 34.1341 133.969 34.8025 133.87C37.9033 133.477 40.9081 133.843 43.8799 134.494C51.1922 136.091 58.2434 139.675 65.8919 139.297C67.7848 139.209 69.6555 138.852 71.4482 138.238C73.1213 137.625 74.7553 136.91 76.3411 136.097C79.3698 134.596 82.4587 132.978 85.9047 132.834C89.882 132.663 93.7093 134.035 97.5276 134.936C101.241 135.824 105.034 136.338 108.85 136.469C116.238 136.695 123.559 135.185 130.442 132.567C131.373 132.216 132.297 131.844 133.216 131.459C133.888 131.177 134.368 130.559 134.158 129.797C133.984 129.163 133.174 128.569 132.495 128.854C125.675 131.718 118.474 133.675 111.042 133.777C107.365 133.819 103.695 133.467 100.094 132.726C96.0897 131.913 92.1904 130.511 88.087 130.178C86.1386 130.013 84.1763 130.181 82.2846 130.676C80.5856 131.166 78.9349 131.811 77.3526 132.6C74.1918 134.101 71.136 135.845 67.6389 136.415C63.9437 137.016 60.1345 136.283 56.5744 135.326C52.9242 134.347 49.3701 133.035 45.6929 132.141C39.8125 130.709 32.6622 130.022 27.5022 133.864C26.8362 134.354 26.2145 134.901 25.6441 135.5C24.4434 136.764 26.3585 138.679 27.5532 137.409H27.5562Z" fill="#FED777"/>
<path d="M26.2325 156.077C31.3908 159.179 37.0151 161.43 42.8893 162.744C44.6213 163.131 46.3683 163.419 48.1274 163.644C48.8298 163.734 49.5082 162.957 49.4782 162.293C49.4421 161.483 48.8778 161.039 48.1274 160.943C47.8512 160.907 48.0283 160.928 48.0883 160.943L47.8212 160.907L47.2929 160.829C46.9177 160.772 46.5424 160.712 46.1702 160.646C45.4648 160.525 44.7654 160.387 44.069 160.24C42.6522 159.94 41.2443 159.577 39.8665 159.163C38.4887 158.748 37.1049 158.277 35.7511 157.755C35.4209 157.626 35.0877 157.494 34.7575 157.359L34.3252 157.178L34.2772 157.157L33.908 156.998C33.2536 156.698 32.6052 156.398 31.9629 156.098C30.478 155.377 29.0271 154.591 27.6103 153.738C27.457 153.646 27.2869 153.585 27.1099 153.559C26.9329 153.533 26.7524 153.542 26.579 153.586C26.4056 153.631 26.2427 153.709 26.0998 153.816C25.9568 153.924 25.8367 154.059 25.7465 154.214C25.6562 154.368 25.5975 154.539 25.5738 154.717C25.5502 154.894 25.562 155.074 25.6086 155.247C25.6552 155.42 25.7357 155.582 25.8454 155.723C25.9551 155.864 26.0917 155.983 26.2475 156.071L26.2325 156.077Z" fill="#FED777"/>
</g>
<defs>
<clipPath id="clip0">
<rect width="181.112" height="175" fill="white"/>
</clipPath>
</defs>
</svg>
